<svg width="35" height="35" viewBox="0 0 35 35" fill="none" xmlns="http://www.w3.org/2000/svg">
<path d="M29.6304 5.80713L18.0161 1.84912C17.876 1.80127 17.688 1.77734 17.5 1.77734C17.312 1.77734 17.124 1.80127 16.9839 1.84912L5.36963 5.80713C5.08594 5.90283 4.85352 6.23096 4.85352 6.53174V23.02C4.85352 23.3208 5.04834 23.7173 5.28418 23.9053L17.0659 33.0859C17.1855 33.1782 17.3394 33.2261 17.4966 33.2261C17.6538 33.2261 17.811 33.1782 17.9272 33.0859L29.709 23.9053C29.9448 23.7207 30.1397 23.3242 30.1397 23.02V6.53174C30.1465 6.23096 29.9141 5.90625 29.6304 5.80713ZM27.6856 22.3638L17.5 30.3003L7.31445 22.3638V7.74854L17.5 4.27588L27.6856 7.74854V22.3638ZM13.8154 15.4937C13.7129 15.3535 13.5488 15.2681 13.3711 15.2681H11.4844C11.2622 15.2681 11.1323 15.521 11.2622 15.7021L15.5825 21.6494C15.6336 21.7193 15.7005 21.7762 15.7777 21.8154C15.8549 21.8546 15.9403 21.8751 16.0269 21.8751C16.1135 21.8751 16.1988 21.8546 16.276 21.8154C16.3532 21.7762 16.4201 21.7193 16.4712 21.6494L23.7378 11.645C23.8677 11.4639 23.7378 11.2109 23.5156 11.2109H21.6289C21.4546 11.2109 21.2871 11.2964 21.1846 11.4365L16.0269 18.5391L13.8154 15.4937Z" fill="#4676F2"/>
</svg>
