<svg width="50" height="50" viewBox="0 0 50 50" fill="none" xmlns="http://www.w3.org/2000/svg">
<circle cx="25" cy="25" r="24" fill="#009F00" stroke="black" stroke-width="2"/>
<path d="M31.6668 10C31.6668 9.55801 31.4912 9.13409 31.1787 8.82153C30.8661 8.50897 30.4422 8.33337 30.0002 8.33337H20.0002C19.5581 8.33337 19.1342 8.50897 18.8217 8.82153C18.5091 9.13409 18.3335 9.55801 18.3335 10V18.3334H10.0002C9.55814 18.3334 9.13421 18.509 8.82165 18.8215C8.50909 19.1341 8.3335 19.558 8.3335 20V30C8.3335 30.4421 8.50909 30.866 8.82165 31.1786C9.13421 31.4911 9.55814 31.6667 10.0002 31.6667H18.3335V40C18.3335 40.4421 18.5091 40.866 18.8217 41.1786C19.1342 41.4911 19.5581 41.6667 20.0002 41.6667H30.0002C30.4422 41.6667 30.8661 41.4911 31.1787 41.1786C31.4912 40.866 31.6668 40.4421 31.6668 40V31.6667H40.0002C40.4422 31.6667 40.8661 31.4911 41.1787 31.1786C41.4912 30.866 41.6668 30.4421 41.6668 30V20C41.6668 19.558 41.4912 19.1341 41.1787 18.8215C40.8661 18.509 40.4422 18.3334 40.0002 18.3334H31.6668V10Z" fill="white" stroke="black" stroke-width="2" stroke-linecap="round" stroke-linejoin="round"/>
</svg>
