<svg width="35" height="35" viewBox="0 0 35 35" fill="none" xmlns="http://www.w3.org/2000/svg">
<path d="M7.29167 7.29167H16.0417C16.8438 7.29167 17.5 6.63542 17.5 5.83333C17.5 5.03125 16.8438 4.375 16.0417 4.375H7.29167C5.6875 4.375 4.375 5.6875 4.375 7.29167V27.7083C4.375 29.3125 5.6875 30.625 7.29167 30.625H16.0417C16.8438 30.625 17.5 29.9688 17.5 29.1667C17.5 28.3646 16.8438 27.7083 16.0417 27.7083H7.29167V7.29167Z" fill="black"/>
<path d="M30.1146 16.9896L26.0458 12.9208C25.9444 12.8166 25.8142 12.7451 25.6719 12.7153C25.5295 12.6855 25.3816 12.6989 25.2469 12.7537C25.1122 12.8085 24.9969 12.9023 24.9158 13.023C24.8347 13.1437 24.7915 13.2858 24.7917 13.4312V16.0417H14.5833C13.7812 16.0417 13.125 16.6979 13.125 17.5C13.125 18.3021 13.7812 18.9583 14.5833 18.9583H24.7917V21.5687C24.7917 22.225 25.5792 22.5458 26.0312 22.0792L30.1 18.0104C30.3917 17.7333 30.3917 17.2667 30.1146 16.9896V16.9896Z" fill="black"/>
</svg>
