<svg width="16" height="16" viewBox="0 0 16 16" fill="none" xmlns="http://www.w3.org/2000/svg">
<circle cx="8" cy="8" r="7.5" stroke="black"/>
<g clip-path="url(#clip0_201:190)">
<path d="M7.31025 8.85567C7.34897 9.25631 7.41361 9.55455 7.50401 9.75039C7.59425 9.94607 7.75601 10.0443 7.98881 10.0443C8.03249 10.0443 8.07169 10.0371 8.11057 10.0297C8.14977 10.0371 8.18849 10.0443 8.23201 10.0443C8.46449 10.0443 8.62593 9.94607 8.71681 9.75039C8.80689 9.55455 8.87169 9.25631 8.91025 8.85567L9.11697 5.76287C9.15569 5.15999 9.17505 4.72719 9.17505 4.46479C9.17505 4.10735 9.08145 3.82847 8.89457 3.62863C8.70689 3.42863 8.46033 3.32831 8.15473 3.32831C8.13873 3.32831 8.12641 3.33199 8.11089 3.33263C8.09537 3.33199 8.08289 3.32831 8.06705 3.32831C7.76113 3.32831 7.51489 3.42847 7.32737 3.62863C7.14017 3.82863 7.04657 4.10751 7.04657 4.46495C7.04657 4.72751 7.06609 5.16015 7.10465 5.76303L7.31121 8.85567" fill="black"/>
<path d="M8.1168 11.1738C7.82096 11.1738 7.56832 11.2677 7.35904 11.4544C7.15008 11.6422 7.04544 11.8691 7.04544 12.1357C7.04544 12.4378 7.1512 12.6741 7.3624 12.8459C7.57424 13.0181 7.82096 13.1048 8.1024 13.1048C8.38944 13.1048 8.63952 13.0194 8.85344 12.8496C9.06736 12.6795 9.17344 12.4416 9.17344 12.1355C9.17344 11.869 9.07104 11.6421 8.86672 11.4542C8.66256 11.2677 8.41248 11.1738 8.11616 11.1738" fill="black"/>
</g>
<defs>
<clipPath id="clip0_201:190">
<rect width="10.24" height="10.24" fill="white" transform="translate(2.88 2.88)"/>
</clipPath>
</defs>
</svg>
