<svg width="35" height="35" viewBox="0 0 35 35" fill="none" xmlns="http://www.w3.org/2000/svg">
<path d="M31.5923 11.5664C30.8255 9.73617 29.7099 8.07261 28.3077 6.66846C26.9097 5.26185 25.249 4.14352 23.42 3.37695C21.5463 2.58785 19.5331 2.18336 17.5001 2.1875H17.4317C15.3638 2.19775 13.3643 2.60791 11.481 3.41455C9.66768 4.18898 8.02261 5.3093 6.63775 6.71289C5.24914 8.1139 4.1463 9.77163 3.39068 11.5938C2.60631 13.4885 2.20887 15.5211 2.22174 17.5718C2.23199 19.9438 2.79937 22.2988 3.85894 24.4043V29.5996C3.85894 30.4678 4.56305 31.1719 5.42779 31.1719H10.6163C12.7316 32.2393 15.0658 32.8009 17.4351 32.8125H17.5069C19.5508 32.8125 21.5298 32.416 23.396 31.6401C25.2158 30.8827 26.8703 29.7774 28.2666 28.3862C29.6748 26.9883 30.7823 25.3545 31.5581 23.5327C32.3614 21.646 32.7715 19.6396 32.7818 17.5684C32.7886 15.4868 32.3853 13.4668 31.5923 11.5664ZM10.6778 19.1406C9.77545 19.1406 9.04058 18.4058 9.04058 17.5C9.04058 16.5942 9.77545 15.8594 10.6778 15.8594C11.5801 15.8594 12.315 16.5942 12.315 17.5C12.315 18.4058 11.5835 19.1406 10.6778 19.1406ZM17.5001 19.1406C16.5977 19.1406 15.8628 18.4058 15.8628 17.5C15.8628 16.5942 16.5977 15.8594 17.5001 15.8594C18.4024 15.8594 19.1373 16.5942 19.1373 17.5C19.1373 18.4058 18.4024 19.1406 17.5001 19.1406ZM24.3223 19.1406C23.42 19.1406 22.6851 18.4058 22.6851 17.5C22.6851 16.5942 23.42 15.8594 24.3223 15.8594C25.2247 15.8594 25.9595 16.5942 25.9595 17.5C25.9595 18.4058 25.2247 19.1406 24.3223 19.1406Z" fill="#FFD233"/>
</svg>
