<svg width="35" height="35" viewBox="0 0 35 35" fill="none" xmlns="http://www.w3.org/2000/svg">
<path d="M17.1805 1.69168C9.53126 1.69812 2.49925 8.07203 1.77758 15.6965C1.00317 22.1904 4.65781 28.9779 10.6227 31.7363C16.1622 34.4437 23.2722 33.5869 27.8666 29.4181C32.5411 25.3731 34.5836 18.4784 32.5303 12.5963C30.5776 6.59516 24.8149 2.00089 18.468 1.72282C18.0394 1.69479 17.6099 1.68954 17.1805 1.69168V1.69168ZM17.4938 6.64317C23.1271 6.47931 28.2916 11.4478 28.3577 17.0833C28.6014 22.2389 24.7281 27.3014 19.5903 28.1658C14.6187 29.1617 9.10463 26.2884 7.36442 21.4618C5.491 16.6887 7.40231 10.6528 11.9624 8.14767C13.6297 7.1687 15.5599 6.64076 17.4938 6.64317V6.64317ZM11.6481 12.0312L17.6234 16.8786C19.6152 15.2628 21.6069 13.647 23.5987 12.0312H11.6481H11.6481ZM10.3223 13.1563V22.9687H24.6778V13.3563L17.6234 19.0792L10.3223 13.1563H10.3223Z" fill="#FFC700"/>
</svg>
